<?xml version="1.0" encoding="utf-8"?>
<!-- Generator: Adobe Illustrator 22.1.0, SVG Export Plug-In . SVG Version: 6.00 Build 0)  -->
<svg version="1.1" id="Lag_1" xmlns="http://www.w3.org/2000/svg" xmlns:xlink="http://www.w3.org/1999/xlink" x="0px" y="0px"
	 viewBox="0 0 48 48" style="enable-background:new 0 0 48 48;" xml:space="preserve">
<style type="text/css">
	.st0{opacity:0.75;fill:#3CA3DC;enable-background:new    ;}
	.st1{opacity:0.5;fill:#3CA3DC;enable-background:new    ;}
	.st2{fill:#3CA3DC;}
	.st3{fill:#465D69;}
	.st4{fill:#FFFFFF;}
</style>
<polygon class="st0" points="44.8,36.4 44.8,13.3 34.8,19 34.9,19.1 34.9,30.6 34.8,30.6 34.8,30.6 24.8,36.4 24.8,36.4 24.8,36.4 
	24.8,48 44.9,36.4 "/>
<path class="st1" d="M23.1,36.4L23.1,36.4l-10-5.8l0,0l0,0l0,0l0,0l0,0V19.1l0,0l0,0l0,0l0,0l-10-5.8v23.1l0,0l0,0l0,0l0,0l20,11.6
	V36.4z M13.1,30.6L13.1,30.6L13.1,30.6L13.1,30.6z"/>
<polygon class="st2" points="34,17.4 44,11.6 24,0 4,11.6 14,17.4 14,17.4 14,17.4 14,17.4 14,17.4 24,11.6 24,11.6 24,11.6 
	24,11.6 24,11.6 24,11.6 "/>
<g>
	<polygon class="st3" points="32,19.4 24,14.8 16,19.4 16,28.6 24,33.2 24,33.2 24,33.2 24,33.2 24,33.2 32,28.6 	"/>
	<g>
		<path class="st4" d="M18.8,21.9h2c0.9,0,1.4,0.6,1.4,1.4c0,0.8-0.5,1.4-1.4,1.4h-1.1v1.5h-0.9V21.9z M20.7,22.6h-1v1.2h1
			c0.4,0,0.6-0.2,0.6-0.6C21.3,22.9,21,22.6,20.7,22.6z"/>
		<path class="st4" d="M22.8,21.9h0.9v4.3h-0.9V21.9z"/>
		<path class="st4" d="M28.3,23.1l-1.2,3.1h-0.4l-1.2-3.1v3.1h-0.9v-4.3h1.3l1,2.7l1-2.7h1.3v4.3h-0.9L28.3,23.1L28.3,23.1z"/>
	</g>
</g>
</svg>
